<svg xmlns="http://www.w3.org/2000/svg" width="362.52" height="362.52" viewBox="0 0 362.52 362.52">
  <path id="whatsapp" d="M308.223,129.822A178.288,178.288,0,0,0,181.179,77.143c-99.046,0-179.642,80.6-179.642,179.642a179.833,179.833,0,0,0,23.952,89.82L0,439.663l95.242-25A179.1,179.1,0,0,0,181.1,436.507h.081c98.965,0,181.341-80.6,181.341-179.641C362.52,208.88,342.129,163.808,308.223,129.822ZM181.179,406.243a149.044,149.044,0,0,1-76.064-20.8l-5.422-3.236L43.211,397.018l15.051-55.106L54.7,336.247a148.816,148.816,0,0,1-22.819-79.463c0-82.3,67-149.3,149.378-149.3a147.986,147.986,0,0,1,105.519,43.777c28.16,28.241,45.477,65.707,45.4,105.6C332.175,339.242,263.474,406.243,181.179,406.243ZM263.07,294.412c-4.451-2.265-26.542-13.109-30.668-14.565-4.127-1.538-7.121-2.265-10.115,2.266s-11.571,14.565-14.242,17.64c-2.589,2.994-5.26,3.4-9.711,1.133-26.38-13.19-43.7-23.548-61.094-53.407-4.612-7.93,4.612-7.364,13.19-24.518,1.457-2.995.728-5.584-.4-7.849s-10.115-24.357-13.837-33.339c-3.641-8.74-7.364-7.526-10.115-7.687-2.589-.162-5.583-.162-8.577-.162a16.627,16.627,0,0,0-11.976,5.583c-4.127,4.531-15.7,15.375-15.7,37.466s16.1,43.454,18.288,46.448c2.266,2.994,31.64,48.309,76.712,67.81,28.484,12.3,39.651,13.351,53.893,11.248,8.658-1.295,26.541-10.843,30.264-21.363s3.722-19.5,2.59-21.363C270.515,297.73,267.52,296.6,263.07,294.412Z" transform="translate(0 -77.143)" fill="#6bbb56"/>
</svg>
